<?xml version="1.0" encoding="UTF-8"?>
<svg width="36px" height="36px" viewBox="0 0 36 36" version="1.1" xmlns="http://www.w3.org/2000/svg" xmlns:xlink="http://www.w3.org/1999/xlink">
    <!-- Generator: Sketch 63.1 (92452) - https://sketch.com -->
    <title>Icon/Dashboard</title>
    <desc>Created with Sketch.</desc>
    <g id="Icon/Dashboard" stroke="none" stroke-width="1" fill="none" fill-rule="evenodd">
        <rect id="Rectangle-Copy" x="0" y="0" width="36" height="36"></rect>
        <path d="M0,5.55556535 C0,3.59111549 1.584,2 3.52,2 L31.68,2 C33.616,2 35.2,3.59111549 35.2,5.55556535 L35.2,25.1111748 C35.2,27.0756246 33.616,28.6667401 31.68,28.6667401 L22.88,28.6667401 L25.696,30.8000793 C26.4704,31.3885254 26.6288,32.5031951 26.048,33.288975 C25.4672,34.074755 24.3584,34.2329776 23.584,33.6445316 L17.6,29.1111858 L11.616,33.6445316 C10.8416,34.2329776 9.7328,34.074755 9.152,33.288975 C8.5712,32.5031951 8.7296,31.3885254 9.504,30.8000793 L12.32,28.6667401 L3.52,28.6667401 C1.584,28.6667401 0,27.0756246 0,25.1111748 L0,5.55556535 Z M17.6176,25.1111748 C17.6,25.1111748 17.6,25.1111748 17.5824,25.1111748 L17.5824,25.1111748 L7.04,25.1111748 L3.52,25.1111748 L3.52,21.5556094 L3.52,9.11113069 L3.52,5.55556535 L7.04,5.55556535 L28.16,5.55556535 L31.68,5.55556535 L31.68,9.11113069 L31.68,21.5556094 L31.68,25.1111748 L28.16,25.1111748 L17.6176,25.1111748 Z M20.68,14.4444787 C21.648,14.4444787 22.44,15.2409254 22.44,16.2222614 L22.44,19.7778267 C22.44,20.7591628 21.648,21.5556094 20.68,21.5556094 C19.712,21.5556094 18.92,20.7591628 18.92,19.7778267 L18.92,16.2222614 C18.92,15.2409254 19.712,14.4444787 20.68,14.4444787 Z M16.28,10.8889134 C16.28,9.90757733 15.488,9.11113069 14.52,9.11113069 C13.552,9.11113069 12.76,9.90757733 12.76,10.8889134 L12.76,19.7778267 C12.76,20.7591628 13.552,21.5556094 14.52,21.5556094 C15.488,21.5556094 16.28,20.7591628 16.28,19.7778267 L16.28,10.8889134 Z M8.8,10.8889134 C9.768,10.8889134 10.56,11.68536 10.56,12.666696 L10.56,19.7778267 C10.56,20.7591628 9.768,21.5556094 8.8,21.5556094 C7.832,21.5556094 7.04,20.7591628 7.04,19.7778267 L7.04,12.666696 C7.04,11.68536 7.832,10.8889134 8.8,10.8889134 Z M28.16,12.666696 C28.16,11.68536 27.368,10.8889134 26.4,10.8889134 C25.432,10.8889134 24.64,11.68536 24.64,12.666696 L24.64,19.7778267 C24.64,20.7591628 25.432,21.5556094 26.4,21.5556094 C27.368,21.5556094 28.16,20.7591628 28.16,19.7778267 L28.16,12.666696 Z" id="Shape-Copy-3" fill="#4A6FFF"></path>
    </g>
</svg>