<?xml version="1.0" encoding="UTF-8"?>
<svg width="36px" height="36px" viewBox="0 0 36 36" version="1.1" xmlns="http://www.w3.org/2000/svg" xmlns:xlink="http://www.w3.org/1999/xlink">
    <!-- Generator: Sketch 63.1 (92452) - https://sketch.com -->
    <title>Icon/Feedback</title>
    <desc>Created with Sketch.</desc>
    <g id="Icon/Feedback" stroke="none" stroke-width="1" fill="none" fill-rule="evenodd">
        <rect id="Rectangle" x="0" y="0" width="36" height="36"></rect>
        <path d="M0,15.0988918 L0,15.6955139 C0,21.9939855 4.698,27.2063905 10.8,28.072743 L10.8,30.2788157 C10.8,33.4280515 14.508,35.1482523 16.938,33.1315267 L22.896,28.1977835 C30.15,28.1424084 36,22.2994417 36,15.0988918 C36,7.86440224 30.096,2 22.806,2 L13.194,2 C5.904,2 0,7.86440224 0,15.0988918 Z M21.042,25.0896325 L14.634,30.3877796 C14.544,30.4645902 14.4,30.3984974 14.4,30.2788157 L14.4,26.4132761 C14.4,26.2614411 14.382,26.1149651 14.346,25.9756341 C14.148,25.2003827 13.446,24.6269824 12.6,24.6269824 C7.632,24.6269824 3.6,20.6274708 3.6,15.6955139 L3.6,15.0988918 C3.6,9.83825679 7.902,5.57258742 13.194,5.57258742 L22.806,5.57258742 C28.098,5.57258742 32.4,9.83825679 32.4,15.0988918 C32.4,20.361313 28.098,24.6269824 22.806,24.6269824 L22.338,24.6269824 C21.852,24.6269824 21.402,24.7895351 21.042,25.0896325 Z M18.072,7.35888112 C16.83,7.35888112 15.858,8.37170966 15.912,9.58996196 L16.308,14.2825555 C16.344,15.2167871 17.118,15.9545264 18.072,15.9545264 C19.008,15.9545264 19.782,15.2167871 19.818,14.2825555 L20.232,9.58996196 C20.268,8.37170966 19.296,7.35888112 18.072,7.35888112 Z M15.48,21.2580325 C15.48,19.8718685 16.614,18.7465035 18.018,18.7465035 C19.404,18.7465035 20.538,19.8718685 20.538,21.2580325 C20.538,22.6459827 19.404,23.7713477 18.018,23.7713477 C16.614,23.7713477 15.48,22.6459827 15.48,21.2580325 Z" id="Shape-Copy-2" fill="#4A6FFF"></path>
    </g>
</svg>