<?xml version="1.0" encoding="UTF-8"?>
<svg width="32px" height="32px" viewBox="0 0 32 32" version="1.1" xmlns="http://www.w3.org/2000/svg" xmlns:xlink="http://www.w3.org/1999/xlink">
    <!-- Generator: Sketch 63.1 (92452) - https://sketch.com -->
    <title>Icon/Guidance</title>
    <desc>Created with Sketch.</desc>
    <g id="Icon/Guidance" stroke="none" stroke-width="1" fill="none" fill-rule="evenodd">
        <rect id="Rectangle" x="0" y="0" width="32" height="32"></rect>
        <path d="M26.40007,11.2000506 C29.4928313,11.2000506 32,8.69285666 32,5.60006417 C32,2.50727169 29.4928313,7.77858781e-05 26.40007,7.77858781e-05 C23.3073087,7.77858781e-05 20.80014,2.50727169 20.80014,5.60006417 C20.80014,8.69285666 23.3073087,11.2000506 26.40007,11.2000506 Z M26.40007,8.00005834 C25.0752866,8.00005834 24.0001,6.92486095 24.0001,5.60006417 C24.0001,4.27526739 25.0752866,3.20007001 26.40007,3.20007001 C27.7248534,3.20007001 28.80004,4.27526739 28.80004,5.60006417 C28.80004,6.92486095 27.7248534,8.00005834 26.40007,8.00005834 Z M6.86911414,31.5312011 C7.49310634,32.1551996 8.50749366,32.1551996 9.13148586,31.5312011 C9.75707804,30.9056027 9.75707804,29.8928051 9.13148586,29.2688066 L7.06271172,27.2000117 L9.13148586,25.1312167 C9.75547806,24.5056182 9.75547806,23.4928207 9.13148586,22.8688222 C8.50589368,22.2432237 7.49310634,22.2432237 6.86911414,22.8688222 L4.80034,24.9376172 L2.73156586,22.8688222 C2.10757366,22.2432237 1.09478632,22.2432237 0.469194135,22.8688222 C-0.154798065,23.4928207 -0.154798065,24.5056182 0.469194135,25.1312167 L2.53796828,27.2000117 L0.469194135,29.2688066 C-0.156398045,29.8928051 -0.156398045,30.9056027 0.469194135,31.5312011 C1.09318634,32.1551996 2.10757366,32.1551996 2.73156586,31.5312011 L4.80034,29.4624062 L6.86911414,31.5312011 Z M8.58749266,0.528076502 C8.28189648,0.188877327 7.84510194,-0.00312220634 7.38750766,3.84152375e-05 C6.92991338,0.0032777781 6.4963188,0.203277292 6.19552256,0.547276456 L1.99557506,5.34726479 C1.41478232,6.01126317 1.48198148,7.02246072 2.14757316,7.6048593 C2.81156486,8.18565789 3.82275222,8.11845805 4.40514494,7.45285967 L5.8003275,5.85926354 L5.8003275,6.89926102 C5.8003275,13.6928445 11.3074587,19.2000311 18.0993738,19.2000311 C23.1265109,19.2000311 27.20006,23.2736212 27.20006,28.300809 L27.20006,30.4000039 C27.20006,31.2832017 27.916851,32 28.80004,32 C29.683229,32 30.40002,31.2832017 30.40002,30.4000039 L30.40002,28.300809 C30.40002,21.5072255 24.8928888,16.0000384 18.0993738,16.0000384 C13.0738366,16.0000384 9.0002875,11.9264488 9.0002875,6.89926102 L9.0002875,5.76006378 L10.5458682,7.47205962 C11.1378608,8.12805803 12.1506481,8.1792579 12.8050399,7.58725934 C13.4610317,6.99526078 13.5138311,5.98406324 12.9218385,5.32806483 L8.58749266,0.528076502 Z" id="Shape-Copy" fill="#4A6FFF"></path>
    </g>
</svg>